# This file uses centimeters as units for non-parametric coordinates.

mtllib CarInTimeSpoiler1.mtl
g default
v -1.228863 1.072581 1.062103
v -0.893159 1.026148 0.802884
v -1.221633 1.191711 1.062103
v -0.886459 1.074584 0.802884
v -1.221633 1.191711 -1.062103
v -0.886459 1.074584 -0.802884
v -1.228863 1.072581 -1.062103
v -0.893159 1.026148 -0.802884
v -1.137889 1.072446 -0.541201
v -1.011277 1.093512 -0.541201
v -1.137889 1.072446 -0.560402
v -1.011277 1.093512 -0.560402
v -1.089916 0.784118 -0.541201
v -0.963305 0.805184 -0.541201
v -0.963305 0.805184 -0.560402
v -1.089916 0.784118 -0.560402
v -1.137889 1.072446 0.550409
v -1.011277 1.093512 0.550409
v -1.137889 1.072446 0.531208
v -1.011277 1.093512 0.531208
v -1.089916 0.784118 0.550409
v -0.963305 0.805184 0.550409
v -0.963305 0.805184 0.531208
v -1.089916 0.784118 0.531208
vt 0.478356 0.536323
vt 0.508196 0.536323
vt 0.508196 0.566162
vt 0.478356 0.566162
vt 0.508196 0.596001
vt 0.478356 0.596001
vt 0.508196 0.625840
vt 0.478356 0.625840
vt 0.508196 0.655680
vt 0.478356 0.655680
vt 0.538035 0.536323
vt 0.538035 0.566162
vt 0.448517 0.536323
vt 0.448517 0.566162
vt 0.478356 0.536323
vt 0.508196 0.536323
vt 0.508196 0.566162
vt 0.478356 0.566162
vt 0.508196 0.596001
vt 0.478356 0.596001
vt 0.508196 0.625840
vt 0.478356 0.625840
vt 0.538035 0.536323
vt 0.538035 0.566162
vt 0.448517 0.536323
vt 0.448517 0.566162
vt 0.478356 0.536323
vt 0.508196 0.536323
vt 0.508196 0.566162
vt 0.478356 0.566162
vt 0.508196 0.596001
vt 0.478356 0.596001
vt 0.508196 0.625840
vt 0.478356 0.625840
vt 0.538035 0.536323
vt 0.538035 0.566162
vt 0.448517 0.536323
vt 0.448517 0.566162
vn 0.603022 -0.050127 0.796148
vn 0.603022 -0.050127 0.796148
vn 0.603022 -0.050127 0.796148
vn 0.603022 -0.050127 0.796148
vn 0.329890 0.944019 0.000000
vn 0.329890 0.944019 0.000000
vn 0.329890 0.944019 0.000000
vn 0.329890 0.944019 0.000000
vn 0.603022 -0.050128 -0.796148
vn 0.603022 -0.050128 -0.796148
vn 0.603022 -0.050128 -0.796148
vn 0.603022 -0.050128 -0.796148
vn -0.137009 -0.990570 0.000000
vn -0.137009 -0.990570 0.000000
vn -0.137009 -0.990570 0.000000
vn -0.137009 -0.990570 0.000000
vn 0.990569 -0.137013 0.000000
vn 0.990569 -0.137013 0.000000
vn 0.990569 -0.137013 0.000000
vn 0.990569 -0.137013 0.000000
vn -0.998163 0.060579 0.000000
vn -0.998163 0.060579 0.000000
vn -0.998163 0.060579 0.000000
vn -0.998163 0.060579 0.000000
vn 0.000000 0.000000 1.000000
vn 0.000000 0.000000 1.000000
vn 0.000000 0.000000 1.000000
vn 0.000000 0.000000 1.000000
vn -0.164126 0.986440 0.000000
vn -0.164126 0.986440 0.000000
vn -0.164126 0.986440 0.000000
vn -0.164126 0.986440 0.000000
vn 0.000000 0.000000 -1.000000
vn 0.000000 0.000000 -1.000000
vn 0.000000 0.000000 -1.000000
vn 0.000000 0.000000 -1.000000
vn 0.986439 0.164126 0.000000
vn 0.986439 0.164126 0.000000
vn 0.986439 0.164126 0.000000
vn 0.986439 0.164126 0.000000
vn -0.986440 -0.164125 0.000000
vn -0.986440 -0.164125 0.000000
vn -0.986440 -0.164125 0.000000
vn -0.986440 -0.164125 0.000000
vn 0.000000 0.000000 1.000000
vn 0.000000 0.000000 1.000000
vn 0.000000 0.000000 1.000000
vn 0.000000 0.000000 1.000000
vn -0.164126 0.986440 0.000000
vn -0.164126 0.986440 0.000000
vn -0.164126 0.986440 0.000000
vn -0.164126 0.986440 0.000000
vn -0.000000 0.000000 -1.000000
vn -0.000000 0.000000 -1.000000
vn -0.000000 0.000000 -1.000000
vn -0.000000 0.000000 -1.000000
vn 0.986439 0.164125 0.000000
vn 0.986439 0.164125 0.000000
vn 0.986439 0.164125 0.000000
vn 0.986439 0.164125 0.000000
vn -0.986440 -0.164126 0.000000
vn -0.986440 -0.164126 0.000000
vn -0.986440 -0.164126 0.000000
vn -0.986440 -0.164126 0.000000
s off
f 1/1/1 2/2/2 4/3/3 3/4/4
f 3/4/5 4/3/6 6/5/7 5/6/8
f 5/6/9 6/5/10 8/7/11 7/8/12
f 7/8/13 8/7/14 2/9/15 1/10/16
f 2/2/17 8/11/18 6/12/19 4/3/20
f 7/13/21 1/1/22 3/4/23 5/14/24
f 13/15/25 14/16/26 10/17/27 9/18/28
f 9/18/29 10/17/30 12/19/31 11/20/32
f 11/20/33 12/19/34 15/21/35 16/22/36
f 14/16/37 15/23/38 12/24/39 10/17/40
f 16/25/41 13/15/42 9/18/43 11/26/44
f 21/27/45 22/28/46 18/29/47 17/30/48
f 17/30/49 18/29/50 20/31/51 19/32/52
f 19/32/53 20/31/54 23/33/55 24/34/56
f 22/28/57 23/35/58 20/36/59 18/29/60
f 24/37/61 21/27/62 17/30/63 19/38/64
