# This file uses centimeters as units for non-parametric coordinates.

mtllib KarRoof1.mtl
g default
v -0.071703 1.812437 -0.599896
v 0.071703 1.812437 -0.599896
v -0.071703 1.946922 -0.599896
v 0.071703 1.946922 -0.599896
v -0.071703 1.946922 -0.773817
v 0.071703 1.946922 -0.773817
v -0.071703 1.812437 -0.773817
v 0.071703 1.812437 -0.773817
v -0.026347 1.946922 -0.654903
v 0.026347 1.946922 -0.654903
v -0.026347 1.946922 -0.718810
v 0.026347 1.946922 -0.718810
v -0.026347 2.368770 -0.843509
v 0.026347 2.368770 -0.843509
v -0.026347 2.368770 -0.907416
v 0.026347 2.368770 -0.907416
v -0.071703 1.812437 -0.599896
v 0.071703 1.812437 -0.599896
v -0.071703 1.946922 -0.599896
v 0.071703 1.946922 -0.599896
v -0.071703 1.946922 -0.773817
v 0.071703 1.946922 -0.773817
v -0.071703 1.812437 -0.773817
v 0.071703 1.812437 -0.773817
v -0.026347 1.946922 -0.654903
v 0.026347 1.946922 -0.654903
v -0.026347 1.946922 -0.718810
v 0.026347 1.946922 -0.718810
v -0.026347 2.368770 -0.843509
v 0.026347 2.368770 -0.843509
v -0.026347 2.368770 -0.907416
v 0.026347 2.368770 -0.907416
vt 0.463162 0.352650
vt 0.536838 0.352650
vt 0.463162 0.426325
vt 0.536838 0.426325
vt 0.463162 0.426325
vt 0.536838 0.426325
vt 0.463162 0.500000
vt 0.536838 0.500000
vt 0.463162 0.500000
vt 0.536838 0.500000
vt 0.463162 0.573675
vt 0.536838 0.573675
vt 0.463162 0.647350
vt 0.536838 0.647350
vt 0.610513 0.352650
vt 0.610513 0.426325
vt 0.389487 0.352650
vt 0.389487 0.426325
vt 0.536838 0.426325
vt 0.463162 0.426325
vt 0.463162 0.500000
vt 0.536838 0.500000
vt 0.463162 0.352650
vt 0.536838 0.352650
vt 0.463162 0.426325
vt 0.536838 0.426325
vt 0.463162 0.426325
vt 0.536838 0.426325
vt 0.463162 0.500000
vt 0.536838 0.500000
vt 0.463162 0.500000
vt 0.536838 0.500000
vt 0.463162 0.573675
vt 0.536838 0.573675
vt 0.463162 0.647350
vt 0.536838 0.647350
vt 0.610513 0.352650
vt 0.610513 0.426325
vt 0.389487 0.352650
vt 0.389487 0.426325
vt 0.536838 0.426325
vt 0.463162 0.426325
vt 0.463162 0.500000
vt 0.536838 0.500000
vn 0.000000 0.000000 1.000000
vn 0.000000 0.000000 1.000000
vn 0.000000 0.000000 1.000000
vn 0.000000 0.000000 1.000000
vn 0.000000 0.000000 1.000000
vn 0.000000 0.000000 1.000000
vn 0.000000 1.000000 0.000000
vn 0.000000 1.000000 0.000000
vn 0.000000 1.000000 0.000000
vn 0.000000 1.000000 0.000000
vn 0.000000 1.000000 0.000000
vn 0.000000 1.000000 0.000000
vn 0.000000 0.000000 -1.000000
vn 0.000000 0.000000 -1.000000
vn 0.000000 0.000000 -1.000000
vn 0.000000 0.000000 -1.000000
vn 0.000000 0.000000 -1.000000
vn 0.000000 0.000000 -1.000000
vn 0.000000 -1.000000 0.000000
vn 0.000000 -1.000000 0.000000
vn 0.000000 -1.000000 0.000000
vn 0.000000 -1.000000 0.000000
vn 0.000000 -1.000000 0.000000
vn 0.000000 -1.000000 0.000000
vn 1.000000 0.000000 0.000000
vn 1.000000 0.000000 0.000000
vn 1.000000 0.000000 0.000000
vn 1.000000 0.000000 0.000000
vn 1.000000 0.000000 0.000000
vn 1.000000 0.000000 0.000000
vn -1.000000 0.000000 0.000000
vn -1.000000 0.000000 0.000000
vn -1.000000 0.000000 0.000000
vn -1.000000 0.000000 0.000000
vn -1.000000 0.000000 0.000000
vn -1.000000 0.000000 0.000000
vn 0.000000 1.000000 0.000000
vn 0.000000 1.000000 0.000000
vn 0.000000 1.000000 0.000000
vn 0.000000 1.000000 0.000000
vn 0.000000 1.000000 0.000000
vn 0.000000 1.000000 0.000000
vn 0.000000 1.000000 0.000000
vn 0.000000 1.000000 0.000000
vn 0.000000 1.000000 0.000000
vn 0.000000 1.000000 0.000000
vn 0.000000 1.000000 0.000000
vn 0.000000 1.000000 0.000000
vn 0.000000 1.000000 0.000000
vn 0.000000 1.000000 0.000000
vn 0.000000 1.000000 0.000000
vn 0.000000 1.000000 0.000000
vn 0.000000 0.408158 0.912911
vn 0.000000 0.408158 0.912911
vn 0.000000 0.408158 0.912911
vn 0.000000 0.408158 0.912911
vn -1.000000 0.000000 0.000000
vn -1.000000 0.000000 0.000000
vn -1.000000 0.000000 0.000000
vn -1.000000 0.000000 0.000000
vn 1.000000 0.000000 0.000000
vn 1.000000 0.000000 0.000000
vn 1.000000 0.000000 0.000000
vn 1.000000 0.000000 0.000000
vn 0.000000 -0.408158 -0.912911
vn 0.000000 -0.408158 -0.912911
vn 0.000000 -0.408158 -0.912911
vn 0.000000 -0.408158 -0.912911
vn 0.000000 0.000000 1.000000
vn 0.000000 0.000000 1.000000
vn 0.000000 0.000000 1.000000
vn 0.000000 0.000000 1.000000
vn 0.000000 0.000000 1.000000
vn 0.000000 0.000000 1.000000
vn 0.000000 1.000000 0.000000
vn 0.000000 1.000000 0.000000
vn 0.000000 1.000000 0.000000
vn 0.000000 1.000000 0.000000
vn 0.000000 1.000000 0.000000
vn 0.000000 1.000000 0.000000
vn 0.000000 0.000000 -1.000000
vn 0.000000 0.000000 -1.000000
vn 0.000000 0.000000 -1.000000
vn 0.000000 0.000000 -1.000000
vn 0.000000 0.000000 -1.000000
vn 0.000000 0.000000 -1.000000
vn 0.000000 -1.000000 0.000000
vn 0.000000 -1.000000 0.000000
vn 0.000000 -1.000000 0.000000
vn 0.000000 -1.000000 0.000000
vn 0.000000 -1.000000 0.000000
vn 0.000000 -1.000000 0.000000
vn 1.000000 0.000000 0.000000
vn 1.000000 0.000000 0.000000
vn 1.000000 0.000000 0.000000
vn 1.000000 0.000000 0.000000
vn 1.000000 0.000000 0.000000
vn 1.000000 0.000000 0.000000
vn -1.000000 0.000000 0.000000
vn -1.000000 0.000000 0.000000
vn -1.000000 0.000000 0.000000
vn -1.000000 0.000000 0.000000
vn -1.000000 0.000000 0.000000
vn -1.000000 0.000000 0.000000
vn 0.000000 1.000000 0.000000
vn 0.000000 1.000000 0.000000
vn 0.000000 1.000000 0.000000
vn 0.000000 1.000000 0.000000
vn 0.000000 1.000000 0.000000
vn 0.000000 1.000000 0.000000
vn 0.000000 1.000000 0.000000
vn 0.000000 1.000000 0.000000
vn 0.000000 1.000000 0.000000
vn 0.000000 1.000000 0.000000
vn 0.000000 1.000000 0.000000
vn 0.000000 1.000000 0.000000
vn 0.000000 1.000000 0.000000
vn 0.000000 1.000000 0.000000
vn 0.000000 1.000000 0.000000
vn 0.000000 1.000000 0.000000
vn 0.000000 0.408158 0.912911
vn 0.000000 0.408158 0.912911
vn 0.000000 0.408158 0.912911
vn 0.000000 0.408158 0.912911
vn -1.000000 0.000000 0.000000
vn -1.000000 0.000000 0.000000
vn -1.000000 0.000000 0.000000
vn -1.000000 0.000000 0.000000
vn 1.000000 0.000000 0.000000
vn 1.000000 0.000000 0.000000
vn 1.000000 0.000000 0.000000
vn 1.000000 0.000000 0.000000
vn 0.000000 -0.408158 -0.912911
vn 0.000000 -0.408158 -0.912911
vn 0.000000 -0.408158 -0.912911
vn 0.000000 -0.408158 -0.912911
s off
g KarRoof1:pCube3
usemtl KarRoof1:lambert2SG
f 1/1/1 2/2/2 3/3/3
f 3/3/4 2/2/5 4/4/6
f 13/5/7 14/6/8 15/7/9
f 15/7/10 14/6/11 16/8/12
f 5/9/13 6/10/14 7/11/15
f 7/11/16 6/10/17 8/12/18
f 7/11/19 8/12/20 1/13/21
f 1/13/22 8/12/23 2/14/24
f 2/2/25 8/15/26 4/4/27
f 4/4/28 8/15/29 6/16/30
f 7/17/31 1/1/32 5/18/33
f 5/18/34 1/1/35 3/3/36
s 1
f 3/3/37 4/4/38 9/20/39
f 9/20/39 4/4/38 10/19/40
s 2
f 5/9/41 3/3/42 11/21/43
f 11/21/43 3/3/42 9/20/44
s 3
f 4/4/45 6/10/46 10/19/47
f 10/19/47 6/10/46 12/22/48
s 4
f 6/10/49 5/9/50 12/22/51
f 12/22/51 5/9/50 11/21/52
s 5
f 9/20/53 10/19/54 13/5/55
f 13/5/55 10/19/54 14/6/56
s 6
f 9/20/57 13/5/58 11/21/59
f 11/21/59 13/5/58 15/7/60
s 7
f 10/19/61 12/22/62 14/6/63
f 14/6/63 12/22/62 16/8/64
s 8
f 12/22/65 11/21/66 16/8/67
f 16/8/67 11/21/66 15/7/68
s off
f 17/23/69 18/24/70 19/25/71
f 19/25/72 18/24/73 20/26/74
f 29/27/75 30/28/76 31/29/77
f 31/29/78 30/28/79 32/30/80
f 21/31/81 22/32/82 23/33/83
f 23/33/84 22/32/85 24/34/86
f 23/33/87 24/34/88 17/35/89
f 17/35/90 24/34/91 18/36/92
f 18/24/93 24/37/94 20/26/95
f 20/26/96 24/37/97 22/38/98
f 23/39/99 17/23/100 21/40/101
f 21/40/102 17/23/103 19/25/104
s 9
f 19/25/105 20/26/106 25/42/107
f 25/42/107 20/26/106 26/41/108
s 10
f 21/31/109 19/25/110 27/43/111
f 27/43/111 19/25/110 25/42/112
s 11
f 20/26/113 22/32/114 26/41/115
f 26/41/115 22/32/114 28/44/116
s 12
f 22/32/117 21/31/118 28/44/119
f 28/44/119 21/31/118 27/43/120
s 13
f 25/42/121 26/41/122 29/27/123
f 29/27/123 26/41/122 30/28/124
s 14
f 25/42/125 29/27/126 27/43/127
f 27/43/127 29/27/126 31/29/128
s 15
f 26/41/129 28/44/130 30/28/131
f 30/28/131 28/44/130 32/30/132
s 16
f 28/44/133 27/43/134 32/30/135
f 32/30/135 27/43/134 31/29/136
