# This file uses centimeters as units for non-parametric coordinates.

mtllib KarSkirts1.mtl
g default
v -1.088489 -0.487742 -0.765303
v -1.088489 -0.487742 0.978996
v -1.088489 -0.353258 -0.765303
v -1.088489 -0.353258 0.978996
v -1.018182 -0.353258 -0.765303
v -1.018182 -0.353258 0.978996
v -1.018182 -0.487742 -0.765303
v -1.018182 -0.487742 0.978996
v 1.088489 -0.487742 -0.765303
v 1.088489 -0.487742 0.978996
v 1.088489 -0.353258 -0.765303
v 1.088489 -0.353258 0.978996
v 1.018182 -0.353258 -0.765303
v 1.018182 -0.353258 0.978996
v 1.018182 -0.487742 -0.765303
v 1.018182 -0.487742 0.978996
vt 0.463162 0.352650
vt 0.536838 0.352650
vt 0.463162 0.426325
vt 0.536838 0.426325
vt 0.463162 0.500000
vt 0.536838 0.500000
vt 0.463162 0.573675
vt 0.536838 0.573675
vt 0.463162 0.647350
vt 0.536838 0.647350
vt 0.610513 0.352650
vt 0.610513 0.426325
vt 0.389487 0.352650
vt 0.389487 0.426325
vt 0.463162 0.352650
vt 0.536838 0.352650
vt 0.463162 0.426325
vt 0.536838 0.426325
vt 0.463162 0.500000
vt 0.536838 0.500000
vt 0.463162 0.573675
vt 0.536838 0.573675
vt 0.463162 0.647350
vt 0.536838 0.647350
vt 0.610513 0.352650
vt 0.610513 0.426325
vt 0.389487 0.352650
vt 0.389487 0.426325
vn -1.000000 0.000000 0.000000
vn -1.000000 0.000000 0.000000
vn -1.000000 0.000000 0.000000
vn -1.000000 0.000000 0.000000
vn 0.000000 1.000000 0.000000
vn 0.000000 1.000000 0.000000
vn 0.000000 1.000000 0.000000
vn 0.000000 1.000000 0.000000
vn 1.000000 0.000000 -0.000000
vn 1.000000 0.000000 -0.000000
vn 1.000000 0.000000 -0.000000
vn 1.000000 0.000000 -0.000000
vn 0.000000 -1.000000 0.000000
vn 0.000000 -1.000000 0.000000
vn 0.000000 -1.000000 0.000000
vn 0.000000 -1.000000 0.000000
vn 0.000000 0.000000 1.000000
vn 0.000000 0.000000 1.000000
vn 0.000000 0.000000 1.000000
vn 0.000000 0.000000 1.000000
vn -0.000000 0.000000 -1.000000
vn -0.000000 0.000000 -1.000000
vn -0.000000 0.000000 -1.000000
vn -0.000000 0.000000 -1.000000
vn 1.000000 0.000000 -0.000000
vn 1.000000 0.000000 -0.000000
vn 1.000000 0.000000 -0.000000
vn 1.000000 0.000000 -0.000000
vn 0.000000 1.000000 0.000000
vn 0.000000 1.000000 0.000000
vn 0.000000 1.000000 0.000000
vn 0.000000 1.000000 0.000000
vn -1.000000 0.000000 0.000000
vn -1.000000 0.000000 0.000000
vn -1.000000 0.000000 0.000000
vn -1.000000 0.000000 0.000000
vn 0.000000 -1.000000 0.000000
vn 0.000000 -1.000000 0.000000
vn 0.000000 -1.000000 0.000000
vn 0.000000 -1.000000 0.000000
vn 0.000000 0.000000 1.000000
vn 0.000000 0.000000 1.000000
vn 0.000000 0.000000 1.000000
vn 0.000000 0.000000 1.000000
vn -0.000000 0.000000 -1.000000
vn -0.000000 0.000000 -1.000000
vn -0.000000 0.000000 -1.000000
vn -0.000000 0.000000 -1.000000
s 1
g pCube1
usemtl BasicSedan1:lambert2SG
f 1/1/1 2/2/2 3/3/3
f 3/3/3 2/2/2 4/4/4
s 2
f 3/3/5 4/4/6 5/5/7
f 5/5/7 4/4/6 6/6/8
s 3
f 5/5/9 6/6/10 7/7/11
f 7/7/11 6/6/10 8/8/12
s 4
f 7/7/13 8/8/14 1/9/15
f 1/9/15 8/8/14 2/10/16
s 5
f 2/2/17 8/11/18 4/4/19
f 4/4/19 8/11/18 6/12/20
s 6
f 7/13/21 1/1/22 5/14/23
f 5/14/23 1/1/22 3/3/24
s 7
f 9/15/25 11/17/26 10/16/27
f 11/17/26 12/18/28 10/16/27
s 8
f 11/17/29 13/19/30 12/18/31
f 13/19/30 14/20/32 12/18/31
s 9
f 13/19/33 15/21/34 14/20/35
f 15/21/34 16/22/36 14/20/35
s 10
f 15/21/37 9/23/38 16/22/39
f 9/23/38 10/24/40 16/22/39
s 11
f 10/16/41 12/18/42 16/25/43
f 12/18/42 14/26/44 16/25/43
s 12
f 15/27/45 13/28/46 9/15/47
f 13/28/46 11/17/48 9/15/47
