# This file uses centimeters as units for non-parametric coordinates.

mtllib KarWing4.mtl
g default
v -0.909796 6.096949 -1.832889
v -0.820498 6.096949 -1.832889
v -0.909796 6.128752 -1.951580
v -0.820498 6.128752 -1.951580
v -0.909796 6.073351 -1.744821
v -0.820498 6.073351 -1.744821
v -0.909796 6.152350 -2.039649
v -0.820498 6.152350 -2.039649
v -1.039739 6.073351 -1.744821
v -1.039739 6.139701 -1.727042
v -1.039739 6.218700 -2.021871
v -1.039739 6.152350 -2.039649
v 0.909796 6.096949 -1.832889
v 0.820498 6.096949 -1.832889
v 0.909796 6.128752 -1.951580
v 0.820498 6.128752 -1.951580
v 0.909796 6.073351 -1.744821
v 0.820498 6.073351 -1.744821
v 0.909796 6.152350 -2.039649
v 0.820498 6.152350 -2.039649
v 1.039739 6.073351 -1.744821
v 1.039739 6.139701 -1.727042
v 1.039739 6.218700 -2.021871
v 1.039739 6.152350 -2.039649
v -0.909796 0.191491 -1.832889
v -0.820498 0.191491 -1.832889
v -0.909796 0.223294 -1.951580
v -0.820498 0.223294 -1.951580
v 0.909796 0.191491 -1.832889
v 0.820498 0.191491 -1.832889
v 0.909796 0.223294 -1.951580
v 0.820498 0.223294 -1.951580
vt 0.494898 0.150853
vt 0.489937 0.105971
vt 0.494104 0.103264
vt 0.499065 0.148146
vt 0.505799 0.150853
vt 0.501632 0.148146
vt 0.506594 0.103264
vt 0.510761 0.105971
vt 0.531396 0.120682
vt 0.513327 0.122679
vt 0.513327 0.105262
vt 0.531396 0.103264
vt 0.534379 0.103264
vt 0.552447 0.105262
vt 0.552447 0.122679
vt 0.534379 0.120682
vt 0.573498 0.120682
vt 0.555430 0.122679
vt 0.555430 0.105262
vt 0.573498 0.103264
vt 0.576481 0.103264
vt 0.594550 0.105262
vt 0.594550 0.122679
vt 0.576481 0.120682
vt 0.614950 0.103264
vt 0.614950 0.121970
vt 0.597533 0.121970
vt 0.597533 0.103264
vt 0.617804 0.121970
vt 0.617804 0.103264
vt 0.635222 0.103264
vt 0.635222 0.121970
vt 0.655493 0.103264
vt 0.655493 0.121970
vt 0.638076 0.121970
vt 0.638076 0.103264
vt 0.658348 0.121970
vt 0.658348 0.103264
vt 0.675765 0.103264
vt 0.675765 0.121970
vt 0.419976 0.511647
vt 0.419976 0.492941
vt 0.433383 0.492941
vt 0.433383 0.511647
vt 0.419976 0.149190
vt 0.433383 0.149190
vt 0.436089 0.538867
vt 0.433383 0.538867
vt 0.433383 0.130484
vt 0.433383 0.103264
vt 0.436089 0.103264
vt 0.388501 0.538867
vt 0.388501 0.511647
vt 0.401908 0.511647
vt 0.401908 0.492941
vt 0.401908 0.149190
vt 0.419976 0.130484
vt 0.401908 0.130484
vt 0.388501 0.130484
vt 0.388501 0.103264
vt 0.388501 0.492941
vt 0.388501 0.149190
vt 0.484140 0.538867
vt 0.439258 0.538867
vt 0.439258 0.103264
vt 0.484140 0.103264
vt 0.486846 0.103264
vt 0.486846 0.130484
vt 0.486846 0.149190
vt 0.486846 0.492941
vt 0.486846 0.511647
vt 0.486846 0.538867
vn 0.000000 -0.965926 -0.258819
vn 0.000000 -0.965926 -0.258819
vn 0.000000 -0.965926 -0.258819
vn 0.000000 -0.965926 -0.258819
vn 0.000000 -0.965926 -0.258819
vn 0.000000 -0.965926 -0.258819
vn 0.000000 -0.965926 -0.258819
vn 0.000000 -0.965926 -0.258819
vn -1.000000 0.000000 -0.000000
vn -1.000000 -0.000000 0.000000
vn -1.000000 0.000000 -0.000000
vn -1.000000 -0.000000 0.000000
vn 0.000000 -0.258818 0.965926
vn 0.000000 -0.258818 0.965926
vn 0.000000 -0.258818 0.965926
vn 0.000000 -0.258821 0.965925
vn 0.000000 -0.258818 0.965926
vn 0.000000 -0.258818 0.965926
vn 0.000000 -0.258819 0.965926
vn 0.000000 -0.258818 0.965926
vn 0.000000 0.965926 0.258819
vn 0.000000 0.965926 0.258819
vn 0.000000 0.965926 0.258819
vn 0.000000 0.965926 0.258819
vn 0.000000 -0.965926 -0.258819
vn 0.000000 -0.965926 -0.258819
vn -0.000000 -0.965926 -0.258819
vn -0.000000 -0.965926 -0.258819
vn 0.000000 -0.965926 -0.258819
vn 0.000000 -0.965926 -0.258819
vn 0.000000 -0.965926 -0.258819
vn 0.000000 -0.965926 -0.258819
vn 0.000000 -0.965926 -0.258819
vn 0.000000 -0.965926 -0.258819
vn 0.000000 -0.965926 -0.258819
vn 0.000000 -0.965926 -0.258819
vn 0.000000 -0.965926 -0.258819
vn 0.000000 -0.965926 -0.258819
vn 1.000000 -0.000000 0.000001
vn 1.000000 -0.000000 0.000001
vn 1.000000 -0.000000 0.000000
vn 1.000000 0.000000 0.000000
vn 0.000000 -0.965926 -0.258819
vn 0.000000 -0.965926 -0.258819
vn 0.000000 -0.965926 -0.258819
vn 0.000000 -0.965926 -0.258820
vn 0.000000 -0.965926 -0.258819
vn 0.000000 -0.965926 -0.258819
vn 0.000000 -0.965926 -0.258819
vn 0.000000 -0.965926 -0.258819
vn 0.000000 -0.965926 -0.258819
vn 0.000000 -0.965926 -0.258819
vn 0.000000 0.258819 -0.965926
vn 0.000000 0.258819 -0.965926
vn 0.000000 0.258819 -0.965926
vn 0.000000 0.258820 -0.965925
vn 0.000000 0.258813 -0.965927
vn 0.000000 0.258819 -0.965926
vn 0.000000 0.258818 -0.965926
vn 0.000000 0.258819 -0.965926
vn 0.000000 -0.965926 -0.258819
vn 0.000000 -0.965926 -0.258819
vn 0.000000 -0.965926 -0.258819
vn 0.000000 -0.965926 -0.258819
vn 0.000000 -0.965926 -0.258819
vn 0.000000 -0.965926 -0.258819
vn 0.000000 -0.965926 -0.258819
vn 0.000000 -0.965926 -0.258819
vn 0.000000 -0.000000 1.000000
vn 0.000000 -0.000000 1.000000
vn 0.000000 -0.000000 1.000000
vn 0.000000 -0.000000 1.000000
vn 0.000000 0.000000 -1.000000
vn 0.000000 0.000000 -1.000000
vn 0.000000 0.000000 -1.000000
vn 0.000000 0.000000 -1.000000
vn -1.000000 -0.000000 0.000000
vn -1.000000 -0.000000 0.000000
vn -1.000000 -0.000000 0.000000
vn -1.000000 -0.000000 0.000000
vn 1.000000 -0.000000 0.000000
vn 1.000000 -0.000000 0.000000
vn 1.000000 -0.000000 0.000000
vn 1.000000 0.000000 0.000000
vn 0.000000 -0.000000 1.000000
vn 0.000000 -0.000000 1.000000
vn 0.000000 -0.000000 1.000000
vn 0.000000 -0.000000 1.000000
vn 0.000000 0.000000 -1.000000
vn 0.000000 0.000000 -1.000000
vn 0.000000 0.000000 -1.000000
vn 0.000000 0.000000 -1.000000
vn -1.000000 0.000000 -0.000002
vn -1.000000 0.000000 -0.000000
vn -1.000000 0.000000 -0.000002
vn -1.000000 -0.000000 0.000000
vn 1.000000 -0.000000 0.000002
vn 1.000000 -0.000000 0.000002
vn 1.000000 0.000000 -0.000001
vn 1.000000 0.000000 -0.000001
s 1
g pCube1
usemtl BasicSedan1:lambert2SG
f 1/41/1 2/42/2 5/44/3
f 5/44/3 2/42/2 6/43/4
s 2
f 4/55/5 3/54/6 8/61/7
f 8/61/7 3/54/6 7/53/8
s 3
f 10/1/9 11/2/10 9/4/11
f 9/4/11 11/2/10 12/3/12
s 4
f 10/47/13 9/48/14 22/51/15
f 9/48/14 5/44/16 22/51/15
f 5/44/16 6/43/17 22/51/15
f 21/50/18 22/51/15 17/49/19
f 6/43/17 18/46/20 22/51/15
f 18/46/20 17/49/19 22/51/15
s 6
f 11/63/21 10/64/22 23/66/23
f 23/66/23 10/64/22 22/65/24
s 7
f 9/48/25 12/52/26 5/44/27
f 5/44/27 12/52/26 1/41/28
f 1/41/28 12/52/26 3/54/29
f 12/52/26 7/53/30 3/54/29
s 8
f 6/43/31 2/42/32 18/46/33
f 18/46/33 2/42/32 14/45/34
s 9
f 13/57/35 17/49/36 14/45/37
f 14/45/37 17/49/36 18/46/38
s 10
f 22/5/39 21/6/40 23/8/41
f 23/8/41 21/6/40 24/7/42
s 11
f 16/56/43 20/62/44 15/58/45
f 15/58/45 20/62/44 19/59/46
s 12
f 21/50/47 17/49/48 24/60/49
f 17/49/48 13/57/50 24/60/49
f 13/57/50 15/58/51 24/60/49
f 15/58/51 19/59/52 24/60/49
s 13
f 23/66/53 24/67/54 11/63/55
f 24/67/54 19/68/56 11/63/55
f 19/68/56 20/69/57 11/63/55
f 12/72/58 11/63/55 7/71/59
f 20/69/57 8/70/60 11/63/55
f 8/70/60 7/71/59 11/63/55
s 15
f 4/55/61 16/56/62 2/42/63
f 2/42/63 16/56/62 14/45/64
s 16
f 8/61/65 20/62/66 4/55/67
f 4/55/67 20/62/66 16/56/68
s 17
f 2/25/69 1/26/70 26/28/71
f 26/28/71 1/26/70 25/27/72
s 18
f 3/29/73 4/30/74 27/32/75
f 27/32/75 4/30/74 28/31/76
s 19
f 3/10/77 27/11/78 1/9/79
f 1/9/79 27/11/78 25/12/80
s 20
f 4/13/81 2/14/82 28/16/83
f 28/16/83 2/14/82 26/15/84
s 21
f 13/33/85 14/34/86 29/36/87
f 29/36/87 14/34/86 30/35/88
s 22
f 16/37/89 15/38/90 32/40/91
f 32/40/91 15/38/90 31/39/92
s 23
f 16/18/93 32/19/94 14/17/95
f 14/17/95 32/19/94 30/20/96
s 24
f 15/21/97 13/22/98 31/24/99
f 31/24/99 13/22/98 29/23/100
